<?xml version="1.0" encoding="utf-8"?>
<!-- Generator: Adobe Illustrator 19.1.0, SVG Export Plug-In . SVG Version: 6.00 Build 0)  -->
<svg version="1.1" id="Layer_1" xmlns="http://www.w3.org/2000/svg" xmlns:xlink="http://www.w3.org/1999/xlink" x="0px"
	y="0px" width="50px" height="50px" viewBox="0 0 1000 1000" style="0 0 1000 1000;" xml:space="preserve">
	<path d="M577.6,150.9c-44.3,14.8-130.6,45-202.2,81.9c-68.6,36.2-126.2,80.5-156.5,105.5c40.6-70.1,102.6-125.5,177.9-158
	C455.1,155.3,517.1,145.7,577.6,150.9z M169.4,490.4c-3,28.8-2.2,57.6,1.5,86.4c32.5-26.6,163.9-128.4,302.6-199.3
	c135.1-68.6,290.1-110,335.8-121c-22.1-21.4-47.2-39.9-74.5-55.4c-19.2,5.2-174.2,52.4-303.4,119.6
	C294.2,392.2,169.4,490.4,169.4,490.4z M480.2,390c-151.3,76.8-293.8,191.9-306.3,202.2c3.7,22.9,9.6,45.8,18.5,68.6
	c15.5-12.5,158.7-125.5,317.4-207.4c146.9-75.3,310.7-126.2,350.6-137.3c-11.8-17-24.4-33.2-37.6-48
	C791.7,274.9,624.1,316.9,480.2,390z M203.4,369.3c-3,6.6-5.2,12.5-8.1,19.9c-11.1,27.3-19.2,54.6-22.9,83.4
	c32.5-25.1,137.3-104.8,253.2-165.3c112.9-59,246.5-101.9,292.3-115.9c-9.6-5.2-20.7-10.3-30.3-14c-23.6-9.6-48-16.2-73.1-20.7
	c-12.5,3.7-134.3,39.1-231,90C282.4,300,203.4,369.3,203.4,369.3z M882.5,354.6c-3.7,40.6-14.8,152.8-39.9,255.4
	c-25.1,101.1-65,194.1-80.5,229.6c17-11.8,33.2-25.1,47.2-39.1c12.5-26.6,45.8-96,67.2-172c22.1-79,32.5-167.6,36.2-195.6
	c-4.4-18.5-11.1-36.9-18.5-53.9C889.8,370.1,886.1,362,882.5,354.6z M656.6,890.5c-18.5-20.7-89.3-98.9-136.5-184.5
	c-44.3-81.2-68.6-170.5-75.3-200c-20.7,12.5-40.6,25.1-60.5,36.9c4.4,25.8,23.6,108.5,64.2,185.3c46.5,86.4,123.3,168.3,131.4,177.1
	C606.4,903.7,631.5,898.6,656.6,890.5z M898,669c24.4-61.3,32.5-126.2,23.6-189.7c-5.9,39.9-15.5,98.9-31,153.5
	c-14,51.7-33.2,98.9-48,132.1C864.7,736.9,883.9,704.5,898,669z M817.5,345c-3,25.8-15.5,143.2-41.3,243.6
	c-25.1,98.9-62,184.5-70.9,205.2c17.7,22.1,33.2,39.1,40.6,47.2c12.5-27.3,55.4-127,82.7-234.7c26.6-104.8,39.1-239.1,43.5-272.4
	c-1.5-1.5-2.2-3.7-3.7-4.4C859.6,331,842.6,336.9,817.5,345z M562.9,548c4.4-8.1,9.6-19.9,14.8-32.5l16.2-53.9
	c3-13.3,4.4-25.8,5.2-34.7c-22.1,10.3-44.3,20.7-66.4,31C536.3,466,545.9,502.2,562.9,548z M371.7,552.4
	c-21.4,13.3-42.1,28.8-61.3,41.3c4.4,20.7,17,78.2,50.9,138.8c36.9,67.2,109.2,147.6,128.4,169.8c23.6,3.7,48,5.2,71.6,4.4
	c-22.9-25.1-85.6-96-125.5-171.2C396.8,662.4,378.3,584.1,371.7,552.4z M339.2,845.4c-17.7-20.7-45-54.6-63.5-90
	c-23.6-44.3-34.7-89.3-38.4-107.8c-17.7,13.3-31,22.9-38.4,28.8c0,0,0,0.7,0.7,1.5C228.5,748,277.2,805.6,339.2,845.4z M695.7,875
	c14-5.9,28.8-13.3,42.1-20.7c-14-14-84.1-92.3-133.6-180.8c-48-87.1-78.2-186-84.1-208.9c-1.5,0.7-3,1.5-4.4,2.2
	c-19.9,10.3-39.1,20.7-58.3,31.7c5.2,23.6,28.8,116.6,75.3,200.8c53.1,97.4,137.3,186,138,186l-0.7,0.7
	C678.7,882.3,687.6,878.6,695.7,875z M663.2,534.7c-16.2,59-43.5,110-50.9,123.3c1.5,3,3.7,5.2,4.4,8.9
	c10.3,18.5,21.4,36.9,33.2,53.1c10.3-22.1,34.7-81.2,53.1-152c19.2-73.8,31.7-163.9,36.2-195.6c-17,5.2-34.7,12.5-53.1,19.9
	C684.6,410.7,678.7,476.4,663.2,534.7z M601.2,493.4c-10.3,34-28,66.4-31,72.3c9.6,24.4,20.7,50.9,34,76
	c11.1-19.9,31.7-62.7,45-111.5c14-50.9,19.9-108.5,21.4-132.9c-18.5,7.4-36.9,14.8-55.4,22.9C613.8,430.6,610.8,461.6,601.2,493.4z
	 M693.5,780.5c12.5-28,45.8-105.5,67.9-194.9c22.9-93,36.2-200.8,39.9-235.5c-14,4.4-29.5,10.3-47.2,16.2
	c-3,22.9-16.2,123.3-36.9,205.2c-20.7,82.7-50.2,149.1-56.8,162.4C670.6,751,682.4,766.5,693.5,780.5z M135.5,854.3
	c-19.9,7.4-38.4,14-59.8,17.7l5.9,30.3c22.1-4.4,43.5-12.5,63.5-19.9c9.6-3.7,19.2-6.6,28.8-10.3c34.7-11.8,61.3-14,84.1-8.1
	c11.1,3,20.7,7.4,31.7,12.5c12.5,5.9,26.6,12.5,42.1,15.5c26.6,5.9,53.9,0.7,76-12.5c17.7,7.4,36.2,12.5,53.9,17
	c-22.9-26.6-78.2-94.5-112.9-156.5c-32.5-59-46.5-112.2-52.4-137.3c-17,12.5-33.2,24.4-47.2,34.7c1.5,8.9,11.8,61.3,38.4,110.7
	c19.9,36.2,64.2,87.1,87.1,112.9c-12.5,3.7-24.4,4.4-36.9,1.5c-11.8-3-22.9-8.1-35.4-13.3c-11.8-5.9-22.9-11.8-36.9-14.8
	c-36.9-10.3-76,0-101.9,8.9C155.4,846.9,145.1,850.6,135.5,854.3z" />
</svg>
